<?xml version="1.0" standalone="no"?>
<!DOCTYPE svg PUBLIC "-//W3C//DTD SVG 20010904//EN"
 "http://www.w3.org/TR/2001/REC-SVG-20010904/DTD/svg10.dtd">
<svg version="1.0" xmlns="http://www.w3.org/2000/svg"
 width="268.000000pt" height="300.000000pt" viewBox="0 0 268.000000 300.000000"
 preserveAspectRatio="xMidYMid meet">

<g transform="translate(0.000000,300.000000) scale(0.100000,-0.100000)"
fill="#1f1e1e" stroke="none">
<path d="M1360 2889 c0 -7 7 -20 15 -29 9 -10 13 -24 9 -34 -5 -14 -14 -16
-48 -10 -22 3 -50 11 -60 16 -11 6 -58 8 -110 5 -103 -5 -175 -31 -201 -71 -9
-13 -55 -43 -101 -67 -84 -41 -134 -87 -134 -122 0 -9 -30 -39 -67 -66 -106
-77 -137 -121 -207 -291 -14 -36 -26 -73 -26 -82 0 -9 -7 -21 -16 -26 -12 -7
-13 -11 -5 -17 8 -5 9 -11 1 -19 -21 -26 -24 -104 -5 -151 9 -25 14 -53 11
-62 -4 -9 3 -25 18 -40 25 -25 26 -32 10 -110 -2 -12 0 -25 6 -28 17 -11 12
-73 -7 -84 -16 -8 -14 -11 10 -22 23 -10 27 -18 27 -51 0 -21 4 -38 8 -38 5 0
17 -26 27 -57 11 -32 23 -62 27 -67 4 -6 8 -27 8 -48 0 -29 -3 -36 -15 -32 -8
4 -22 1 -30 -6 -14 -11 -13 -15 5 -27 16 -12 18 -18 9 -34 -14 -27 -6 -34 20
-17 17 10 20 20 16 43 -4 26 -2 24 16 -13 11 -23 24 -42 29 -42 6 0 10 -5 10
-10 0 -6 9 -30 20 -52 11 -23 20 -51 20 -63 0 -11 7 -31 16 -44 15 -21 25 -52
40 -121 3 -13 11 -53 19 -90 8 -36 25 -87 39 -115 27 -52 32 -80 18 -89 -5 -3
-30 -41 -55 -85 -25 -43 -59 -88 -74 -99 -33 -22 -231 -112 -249 -112 -7 0
-31 -16 -54 -35 -23 -19 -50 -35 -59 -35 -10 0 -38 -13 -62 -30 -24 -16 -48
-30 -54 -30 -5 0 -37 -14 -70 -30 -33 -17 -70 -30 -82 -30 -21 0 -23 -4 -23
-60 l0 -60 500 0 500 0 -17 38 c-8 20 -19 46 -24 57 -4 11 -16 38 -25 60 -27
66 -102 297 -109 338 -5 24 -4 37 4 37 6 0 11 -4 11 -9 0 -23 100 -158 223
-301 42 -50 77 -94 77 -98 0 -5 32 -34 71 -65 l72 -57 651 0 651 1 -147 63
c-135 59 -283 137 -368 194 -23 16 -52 54 -85 116 -28 50 -66 113 -83 138 -18
26 -32 54 -32 63 0 9 15 57 34 108 39 104 62 182 71 244 4 24 11 45 16 49 5 3
9 20 9 37 0 18 7 45 15 61 8 15 15 49 15 73 0 36 3 44 15 39 11 -4 15 1 15 18
0 13 7 29 15 36 8 7 15 27 15 44 0 17 7 65 16 106 8 41 14 101 12 133 -2 45 1
61 13 70 17 13 11 51 -6 45 -6 -2 -12 13 -13 32 -4 36 5 88 40 223 26 105 26
161 -2 277 -6 25 -16 65 -21 89 -12 55 -83 150 -132 176 -29 16 -37 26 -37 48
0 15 -4 27 -10 27 -5 0 -10 5 -10 11 0 5 5 7 10 4 6 -3 10 -2 10 2 0 11 -45
59 -67 72 -16 9 -16 12 -3 20 20 14 9 22 -42 28 -24 3 -50 11 -58 19 -8 7 -35
15 -60 19 -25 3 -50 12 -55 19 -6 8 -25 22 -43 33 -18 11 -54 41 -81 66 -27
26 -58 47 -68 47 -10 0 -32 8 -49 19 -44 27 -74 35 -74 20z m47 -86 c-4 -3
-10 -3 -14 0 -3 4 0 7 7 7 7 0 10 -3 7 -7z m148 -416 c39 -2 123 -39 138 -61
5 -8 9 -8 15 0 15 22 40 22 59 1 10 -12 33 -34 50 -48 50 -42 62 -76 77 -214
9 -76 19 -126 27 -131 5 -3 9 -34 9 -69 l0 -64 -32 6 c-18 3 -38 10 -44 15 -7
5 -91 6 -188 3 -163 -5 -178 -7 -202 -27 -22 -20 -24 -27 -18 -63 4 -22 7 -64
6 -92 -2 -50 -1 -53 22 -53 14 0 36 4 50 10 25 9 37 -2 16 -15 -14 -9 -13 -35
2 -35 6 0 22 10 35 22 l23 21 23 -22 c24 -21 67 -28 115 -17 12 3 22 1 22 -4
0 -13 54 -40 78 -40 11 0 25 7 32 15 7 8 16 12 21 9 5 -3 9 0 9 5 0 6 7 11 15
11 8 0 15 6 15 14 0 17 27 28 51 21 21 -7 36 -54 45 -136 6 -50 -5 -137 -32
-264 -3 -16 -8 -45 -11 -63 -3 -17 -8 -32 -12 -32 -5 0 -7 -13 -6 -30 1 -18
-5 -36 -17 -47 -11 -10 -16 -24 -12 -35 3 -10 2 -28 -2 -40 -6 -19 -7 -19 -16
-5 -8 16 -12 15 -49 -3 l-40 -21 -40 34 c-41 36 -76 39 -100 11 -10 -12 -15
-12 -30 2 -12 11 -19 13 -19 5 0 -7 -3 -10 -7 -8 -5 3 -31 7 -60 11 -28 3 -58
9 -67 12 -28 11 -18 42 22 63 28 15 28 34 0 71 -28 39 -64 39 -113 0 -48 -38
-103 -40 -160 -5 -46 29 -77 32 -99 10 -19 -20 -11 -42 22 -59 l26 -14 -36
-15 c-20 -8 -41 -25 -48 -36 -6 -12 -15 -19 -21 -15 -5 3 -16 0 -24 -6 -8 -6
-23 -9 -35 -5 -12 4 -26 2 -33 -3 -7 -5 -19 -10 -27 -11 -8 -1 -28 -3 -45 -4
-26 -3 -32 -10 -48 -56 -15 -45 -16 -59 -5 -87 12 -34 4 -60 -11 -35 -6 10
-10 10 -16 2 -5 -9 -10 -9 -21 0 -7 6 -20 9 -28 6 -25 -10 -62 47 -85 131 -11
43 -21 89 -21 103 1 29 -43 197 -59 227 -6 11 -10 25 -9 29 1 4 -2 31 -6 60
-4 28 -3 101 4 165 6 62 17 178 25 257 12 128 17 147 38 170 14 14 36 49 50
77 14 27 33 56 42 64 9 7 23 27 31 44 40 85 114 163 162 172 19 4 47 13 61 20
14 8 41 14 60 14 22 0 47 10 70 27 29 23 46 27 101 29 36 0 78 7 93 15 19 10
49 14 90 12 34 -2 80 -5 102 -6z m-955 -1139 c0 -16 -3 -19 -11 -11 -6 6 -8
16 -5 22 11 17 16 13 16 -11z m740 -314 c0 -8 -4 -14 -9 -14 -11 0 -22 26 -14
34 9 9 23 -3 23 -20z m-120 -37 c12 -15 31 -24 56 -25 20 -2 40 -5 44 -7 3 -2
12 0 20 5 8 5 21 3 33 -3 15 -9 21 -9 24 1 6 17 40 15 47 -3 3 -9 18 -15 36
-15 18 0 29 -4 25 -10 -3 -5 -23 -9 -43 -8 -44 1 -98 -9 -130 -24 -18 -9 -30
-7 -66 10 -33 17 -61 22 -122 22 -67 0 -120 11 -104 22 31 20 58 29 95 35 25
3 48 10 51 14 8 14 15 11 34 -14z m-75 -97 c44 -6 99 -18 123 -27 38 -14 53
-15 121 -4 46 8 101 10 134 6 34 -4 69 -3 91 5 47 15 77 0 68 -33 -9 -33 -54
-87 -66 -80 -5 3 -6 1 -2 -5 10 -16 -12 -26 -84 -38 -36 -7 -92 -17 -125 -23
-33 -6 -88 -11 -122 -11 -68 0 -103 -18 -103 -54 0 -17 -2 -17 -23 5 -12 13
-35 41 -51 62 -17 23 -34 36 -42 33 -8 -3 -14 -1 -14 4 0 6 -5 10 -10 10 -6 0
-22 12 -35 28 -25 27 -31 72 -18 120 5 21 10 23 42 18 20 -3 72 -10 116 -16z"/>
<path d="M828 1790 c-31 -3 -58 -7 -60 -10 -2 -3 -16 -20 -31 -38 -18 -22 -27
-45 -27 -68 0 -31 2 -34 31 -34 16 0 28 4 25 9 -10 16 52 34 91 26 32 -6 35
-9 18 -15 -11 -5 -36 -9 -56 -9 -41 -1 -54 -12 -64 -58 -9 -46 16 -70 84 -79
l54 -7 -5 32 c-3 18 -1 34 4 37 4 3 8 -1 8 -9 0 -8 8 -21 18 -30 25 -22 113
-12 120 15 4 18 13 18 60 1 15 -6 16 13 0 23 -15 9 15 22 53 23 24 1 28 6 33
49 14 105 14 105 -24 123 -38 18 -222 29 -332 19z"/>
<path d="M513 1313 c4 -3 10 -3 14 0 3 4 0 7 -7 7 -7 0 -10 -3 -7 -7z"/>
</g>
</svg>
